<?xml version="1.0" encoding="iso-8859-1"?>
<!-- Generator: Adobe Illustrator 19.0.0, SVG Export Plug-In . SVG Version: 6.00 Build 0)  -->
<svg version="1.1" id="Layer_1" xmlns="http://www.w3.org/2000/svg" xmlns:xlink="http://www.w3.org/1999/xlink" x="0px" y="0px"
	 viewBox="0 0 512 512" style="enable-background:new 0 0 512 512;" xml:space="preserve">
<circle style="fill:#FFFFFF;" cx="248.008" cy="156.431" r="47.943"/>
<polyline style="fill:#FBB03B;" points="216.455,251.989 112.162,251.989 8.325,420.134 8.325,436.184 503.675,436.184 
	503.675,420.134 383.856,251.989 279.935,251.989 "/>
<polyline style="fill:#8CC63F;" points="351.74,372.705 232.027,372.705 216.045,436.184 503.675,436.184 503.675,420.134 
	471.757,372.705 351.74,372.705 "/>
<circle style="fill:#FFFFFF;" cx="375.862" cy="372.189" r="23.977"/>
<g>
	<polyline style="fill:#F7931E;" points="384,251.989 112.162,251.989 8.325,420.134 8.325,436.184 160.26,436.184 	"/>
</g>
<circle style="fill:#FFFFFF;" cx="248.008" cy="156.431" r="47.943"/>
<path style="fill:#009245;" d="M248.009,76.522c-44.133,0-79.909,35.777-79.909,79.909s79.909,143.838,79.909,143.838
	s79.909-99.705,79.909-143.838C327.919,112.299,292.142,76.522,248.009,76.522z M248.009,204.377
	c-26.48,0-47.946-21.467-47.946-47.946c0-26.48,21.467-47.946,47.946-47.946c26.48,0,47.946,21.465,47.946,47.946
	C295.955,182.911,274.489,204.377,248.009,204.377z"/>
<g>
	<path style="fill:#8CC63F;" d="M247.675,76.522v31.964c27.057,0,47.946,21.465,47.946,47.946c0,26.479-20.889,47.946-47.946,47.946
		v95.892c0,0,79.909-99.705,79.909-143.838S292.423,76.522,247.675,76.522z"/>
	<polygon style="fill:#8CC63F;" points="423.811,308.184 319.928,308.184 303.946,251.989 383.856,251.989 	"/>
</g>
<polyline style="fill:#009245;" points="320,307.926 303.946,251.989 384,251.989 "/>
<path style="fill:#FFFFFF;" d="M255.975,285.643c9.324,3.284,16.006,12.17,16.006,22.617c0,13.24-10.733,23.973-23.973,23.973
	s-23.973-10.733-23.973-23.973c0-10.439,6.673-19.32,15.984-22.61"/>
<polyline style="fill:#8CC63F;" points="143.61,332.119 192.072,332.119 160.108,436.184 8.325,436.184 8.325,420.134 
	64.216,332.119 112.39,332.119 "/>
<polygon style="fill:#009245;" points="64.216,332.119 112.162,332.119 56.195,428.126 56.195,436.184 8.325,436.184 8.325,420.134 
	"/>
<circle style="fill:#FFFFFF;" cx="128.146" cy="332.238" r="15.982"/>
<polygon style="fill:#8CC63F;" points="88.189,292.575 160.108,292.575 176.089,251.989 112.162,251.989 "/>
<polygon style="fill:#009245;" points="88.189,292.575 128.144,292.575 152.117,251.989 112.162,251.989 "/>
<rect x="216.455" y="148.969" style="fill:#8CC63F;" width="15.61" height="15.61"/>
<rect x="240.39" y="148.969" style="fill:#FBB03B;" width="15.61" height="15.61"/>
<rect x="264.325" y="148.969" style="fill:#8CC63F;" width="15.61" height="15.61"/>
<path d="M387.86,244.705h-90.24c25.408-39.435,38.29-69.121,38.29-88.273c0-48.468-39.432-87.901-87.901-87.901
	s-87.901,39.432-87.901,87.901c0,19.152,12.882,48.838,38.29,88.273h-90.57L0,417.903v25.566h512v-25.846L387.86,244.705z
	 M379.851,260.315l29.136,40.585h-83.185l-11.693-40.585H379.851z M176.089,156.432c0-39.656,32.263-71.918,71.919-71.918
	s71.919,32.262,71.919,71.918c0,31.003-47.238,98.805-71.919,130.887C223.327,255.243,176.089,187.452,176.089,156.432z
	 M263.991,308.26c0,8.812-7.17,15.982-15.982,15.982c-8.812,0-15.982-7.17-15.982-15.982c0-3.934,1.455-7.622,3.92-10.468
	c3.582,4.666,5.761,7.393,5.827,7.474l6.236,7.78l6.236-7.78c0.066-0.081,2.245-2.809,5.828-7.475
	C262.536,300.638,263.991,304.326,263.991,308.26z M116.497,260.315h47.917l-9.588,23.935h-52.832L116.497,260.315z M15.61,427.859
	v-5.494l51.001-81.921h39.01c3.359,9.187,12.188,15.762,22.524,15.762s19.164-6.575,22.524-15.762h30.812l-27.114,87.415H15.61z
	 M120.152,332.234c0-4.406,3.585-7.991,7.991-7.991s7.991,3.585,7.991,7.991c0,4.406-3.585,7.991-7.991,7.991
	S120.152,336.64,120.152,332.234z M209.802,427.859h-39.093l31.955-103.024h-51.721c-3.126-9.608-12.162-16.574-22.799-16.574
	c-10.638,0-19.673,6.966-22.8,16.574H76.329l15.548-24.976h73.512l15.84-39.545h27.537c6.267,9.168,12.309,17.575,17.473,24.573
	c-6.349,5.93-10.193,14.329-10.193,23.374c0,17.626,14.339,31.964,31.964,31.964s31.964-14.339,31.964-31.964
	c0-9.047-3.843-17.446-10.193-23.374c5.164-6.998,11.205-15.405,17.471-24.572h10.613l16.189,56.195h106.142l34.366,47.87h-47.7
	c-3.495-13.863-16.063-24.155-30.995-24.155s-27.501,10.293-30.995,24.155H225.828L209.802,427.859z M391.846,372.189
	c0,8.812-7.17,15.982-15.982,15.982c-8.812,0-15.982-7.17-15.982-15.982s7.17-15.982,15.982-15.982
	C384.677,356.206,391.846,363.376,391.846,372.189z M496.39,427.859H227.094l11.132-47.87h106.643
	c3.491,13.867,16.062,24.163,30.997,24.163s27.505-10.297,30.997-24.163h58.905l30.623,42.657V427.859z"/>
<path d="M256,220.77v-8.981c27.07-3.89,47.946-27.227,47.946-55.357c0-30.844-25.093-55.937-55.936-55.937
	c-30.844,0-55.937,25.093-55.937,55.937c0,28.259,21.067,51.675,48.318,55.404v8.934H256z M208.054,156.432
	c0-22.031,17.924-39.955,39.956-39.955c22.031,0,39.955,17.924,39.955,39.955c0,22.032-17.924,39.956-39.955,39.956
	C225.977,196.386,208.054,178.463,208.054,156.432z"/>
<g>
</g>
<g>
</g>
<g>
</g>
<g>
</g>
<g>
</g>
<g>
</g>
<g>
</g>
<g>
</g>
<g>
</g>
<g>
</g>
<g>
</g>
<g>
</g>
<g>
</g>
<g>
</g>
<g>
</g>
</svg>
